<?xml version="1.0" encoding="UTF-8"?><svg id="a" xmlns="http://www.w3.org/2000/svg" width="449mm" height="296.52mm" viewBox="0 0 1272.76 840.53"><defs><style>.cls-1{fill:none;stroke:#000;stroke-linecap:round;stroke-linejoin:round;stroke-width:1.13px;}</style></defs><path class="cls-1" d="m1091.29,820.93l3.1-233.3,15.8-39.3c3.3-1.6,6.4-3.3,9.5-5,4.6-2.7,9.1-5.5,13.4-8.5s8.5-6.2,12.4-9.4c4-3.2,7.7-6.6,11.4-10s7.2-6.9,10.6-10.4,6.6-7.1,9.8-10.6,6.2-7,9.2-10.5c1.5-1.8,3-3.5,4.4-5.2,1.5-1.8,2.8-3.4,4.3-5.1s2.8-3.3,4.2-4.9c1.4-1.7,2.8-3.3,4.1-4.8,1.4-1.6,2.7-3.1,4-4.6,1.3-1.4,2.6-2.9,3.9-4.3.6-.7,1.3-1.4,1.9-2.1.7-.7,1.3-1.3,1.9-2,.3-.3.6-.7.9-1,.3-.4.6-.7.9-1,.7-.6,1.3-1.3,1.9-1.9.7-.7,1.3-1.3,1.9-1.9.7-.6,1.3-1.2,1.9-1.8.7-.6,1.3-1.2,1.9-1.8.7-.5,1.3-1.1,1.9-1.7,1.2-1.1,2.5-2.3,3.7-3.4,1.3-1.1,2.5-2.2,3.7-3.3,2.4-2.2,4.8-4.4,7.2-6.5,1.2-1,2.3-2.1,3.5-3.2,1.1-1.1,2.3-2.2,3.4-3.3,1.1-1.1,2.2-2.2,3.3-3.3,1.1-1.1,2.2-2.2,3.2-3.4,1.1-1.2,2.1-2.4,3.1-3.6.5-.7,1-1.3,1.5-1.9s.9-1.3,1.4-1.9c.5-.7,1-1.3,1.4-2,.4-.6.9-1.3,1.3-2s.8-1.4,1.2-2.1c.2-.4.4-.7.6-1.1.1-.1.2-.3.3-.5.1-.1.2-.3.3-.5.4-.7.8-1.5,1.1-2.2.4-.7.7-1.5,1-2.2.3-.7.6-1.5.9-2.2s.6-1.4.8-2.2c.5-1.5.9-3,1.3-4.5s.7-3,.9-4.5.4-3,.5-4.5.1-3,.1-4.5c0-.8,0-1.6-.1-2.3,0-.8-.1-1.5-.2-2.3-.1-.8-.3-1.6-.4-2.3-.1-.8-.3-1.5-.5-2.3s-.4-1.6-.7-2.3c-.1-.4-.2-.7-.4-1.1s-.3-.7-.5-1.1c-.2-.3-.3-.7-.5-1.1s-.4-.7-.6-1.1c-.1-.1-.2-.4-.3-.5s-.2-.3-.3-.5c-.2-.4-.5-.7-.7-1.1-.2-.3-.5-.7-.7-1-.2-.4-.4-.7-.7-1-.5-.6-1.1-1.3-1.6-1.8s-1.1-1.1-1.7-1.6-1.2-.9-1.8-1.4-1.2-.9-1.8-1.3-1.2-.8-1.8-1.1-1.2-.6-1.8-.9-1.2-.6-1.8-.8-1.2-.5-1.8-.7-1.3-.4-1.8-.6-1.1-.4-1.7-.5-1.1-.2-1.7-.4-1.2-.3-1.7-.4c-.5-.1-1.1-.2-1.6-.3-.3,0-.5-.1-.8-.1s-.5-.1-.8-.1-.5,0-.8-.1c-.2,0-.5-.1-.8-.1-.6-.1-1.1-.2-1.7-.2s-1.1-.1-1.7-.2c-.6-.1-1.1-.1-1.7-.2-.5-.1-1.1-.1-1.7-.2-1.2-.1-2.4-.2-3.6-.2s-2.5-.1-3.7-.1c-2.5,0-5,0-7.7.1s-5.4.3-8.3.5c-2.8.2-5.8.5-8.9.9l-5.6,2-92.4,89c.1-1.9.3-3.8.4-5.7.3-3.6.5-7.3.8-11,.6-7.4,13.48-49.6,14.08-57.4s4.92-23.2,5.62-31.4l4.4-19.4c3.6-12.9,7.1-26,10.5-38.9,1.7-6.5,3.4-12.9,5-19.3,1.7-6.3,3.3-12.6,4.8-18.8s3-12.3,4.4-18.2c1.4-5.9,2.7-11.7,4-17.3,1.2-5.6,2.4-11,3.5-16.2.6-2.6,1.1-5.1,1.6-7.6.5-2.4.9-4.8,1.4-7.2s.9-4.7,1.3-6.9c.2-1.1.4-2.2.6-3.3.2-1.1.3-2.2.5-3.2.2-1.1.3-2.1.5-3.1.1-1,.3-2,.4-3,.2-2,.5-3.9.7-5.7.3-1.8.4-3.6.6-5.3.1-1.8.3-3.4.3-5.1v-4.9c-.1-1.6-.1-3.2-.3-4.7-.1-.8-.2-1.5-.3-2.3-.1-.8-.3-1.5-.4-2.3s-.3-1.5-.5-2.3-.4-1.5-.7-2.3c-.1-.3-.2-.7-.4-1.1s-.4-.7-.5-1.1-.3-.7-.5-1.1-.4-.7-.6-1.1-.3-.8-.6-1.1-.5-.7-.7-1c-.4-.7-.9-1.4-1.4-2-.5-.6-1.1-1.2-1.6-1.8s-1.1-1.2-1.7-1.7c-.6-.5-1.2-1-1.8-1.5-.6-.4-1.2-.9-1.9-1.3-.7-.5-1.3-.8-2-1.2s-1.4-.7-2.1-1c-.3-.1-.6-.3-1-.4-.4-.2-.7-.3-1.1-.4s-.7-.2-1.1-.3c-.4-.1-.7-.2-1.1-.3-.7-.2-1.5-.4-2.2-.5s-1.4-.2-2.2-.3-1.5-.2-2.3-.2h-2.3c-.8,0-1.5.1-2.3.2s-1.5.2-2.3.4c-.8.1-1.5.3-2.3.5s-1.5.4-2.3.7c-.4.1-.7.3-1.1.4-.4.2-.7.3-1.1.5-.4.1-.7.3-1.1.5-.1.1-.3.2-.5.3-.1.1-.3.2-.5.3-.4.2-.7.4-1.1.6-.3.2-.7.4-1,.6-.7.5-1.4.9-2,1.4-.7.5-1.3,1-1.9,1.5s-1.1,1-1.7,1.6c-.5.5-1.1,1.1-1.6,1.7-.6.6-1.1,1.2-1.6,1.8-1,1.3-2,2.6-2.9,3.9-.9,1.3-1.8,2.7-2.7,4.2-.8,1.5-1.7,3-2.5,4.6-.9,1.6-1.7,3.3-2.5,5s-1.6,3.5-2.4,5.4c-.4,1-.8,1.9-1.2,2.9-.4,1-.8,2-1.2,3-.8,2.1-1.7,4.2-2.5,6.4s-1.7,4.4-2.5,6.8c-.9,2.4-1.7,4.8-2.6,7.3s-1.7,5.1-2.6,7.7c-1.7,5.2-3.5,10.7-5.3,16.3-1.8,5.7-3.6,11.5-5.4,17.5-1.9,6-3.7,12.1-5.5,18.3s-3.7,12.4-5.5,18.7c-1.8,6.3-3.6,12.6-5.4,18.9-1.8,6.3-3.5,12.6-5.3,18.7-.6,2.2-10.56,39.15-11.16,41.25l-7.66-3.83c0-9.4,1.72-51.92,1.62-61.72-.1-7-.1-14.1-.2-21.2-.1-7.1-.2-14.1-.3-21.1s-.2-13.9-.4-20.7c-.2-6.8-.3-13.4-.5-19.9-.1-3.2-.2-6.4-.3-9.5-.1-3.1-.2-6.2-.3-9.2s-.2-5.9-.3-8.8c-.1-1.5-.1-2.9-.2-4.3s-.1-2.8-.2-4.2c-.1-1.4-.1-2.8-.2-4.1-.1-1.3-.1-2.6-.2-3.9-.1-1.3-.1-2.6-.2-3.8s-.1-2.5-.2-3.7c-.1-2.5-.2-4.9-.4-7.2-.1-2.3-.3-4.6-.5-6.8-.1-2.2-.3-4.3-.6-6.4s-.5-4.1-.8-6.1-.7-3.9-1-5.8-.8-3.8-1.2-5.6-.9-3.6-1.5-5.3-1.2-3.4-1.9-5.1c-.3-.9-.7-1.7-1.1-2.5s-.7-1.6-1.2-2.4-.9-1.6-1.4-2.4-1-1.5-1.5-2.3c-.5-.7-1.1-1.5-1.7-2.2s-1.2-1.4-1.9-2.1-1.4-1.4-2.2-2c-.7-.6-1.5-1.2-2.4-1.8-.8-.6-1.7-1.1-2.7-1.6-.5-.2-1-.5-1.5-.7-.5-.2-1-.4-1.5-.6s-1.1-.3-1.6-.5c-.6-.1-1.1-.3-1.7-.4-.3-.1-.6-.2-.9-.2s-.6-.1-.9-.1c-.1-.1-.3-.1-.4-.1h-.4c-.3-.1-.6-.1-.9-.1h-3.4c-1.2.1-2.2.2-3.3.4s-2.1.5-3.1.8-1.9.7-2.9,1.1c-1,.4-1.9.8-2.8,1.3s-1.8,1-2.6,1.6-1.6,1.2-2.4,1.8-1.6,1.3-2.3,2-1.4,1.4-2.1,2.2c-.3.4-.7.8-1,1.2-.4.4-.7.8-1,1.2s-.6.9-.9,1.3c-.1.3-.3.5-.4.7-.1.3-.3.5-.4.7-.3.4-.5.8-.8,1.3s-.6.9-.8,1.4c-.4.9-.9,1.9-1.3,2.8-.5,1-.8,1.9-1.2,2.9s-.7,1.9-1,2.9-.7,2-.9,3-.5,1.9-.7,3-.4,2.1-.6,3.1c-.4,2-.7,4.1-1,6.3-.3,2.1-.5,4.4-.7,6.6s-.4,4.5-.5,6.9c-.2,2.4-.3,4.8-.4,7.3-.1,2.5-.2,5-.3,7.6,0,1.3-.1,2.6-.1,3.9s-.1,2.6-.1,4c-.1.7,0,1.4-.1,2.1s-.1,1.4-.1,2.1c0,1.4-.1,2.8-.1,4.2s-.1,2.9-.1,4.3-.1,2.9-.1,4.4c-.1,3-.2,6.1-.3,9.2-.1,3.1-.2,6.3-.3,9.5-.1,3.2-.2,6.5-.3,9.8-.2,6.6-.5,13.4-.7,20.2-.2,6.9-.5,13.8-.7,20.8s-.5,14-.7,21c-.2,6.9-.4,13.9-.6,20.7-.2,6.9-.3,13.6-.5,20.2-.1,2.3,1,37.08.9,39.38l-8.68-.26c-1.6-8.8-9.21-48.13-10.81-56.83-1.2-6.6-2.4-13.1-3.6-19.6s-2.5-12.8-3.7-19.1c-1.3-6.3-2.4-12.4-3.7-18.4s-2.5-11.8-3.7-17.4-2.4-11-3.6-16.2c-.6-2.6-1.2-5.1-1.8-7.6s-1.2-4.9-1.8-7.2c-.5-2.4-1.1-4.6-1.7-6.8-.3-1.1-.6-2.2-.9-3.2-.3-1-.6-2.1-.9-3.1-.3-1-.6-2-.9-3-.3-1-.6-2-.9-2.9-.6-1.9-1.1-3.8-1.7-5.5-.6-1.8-1.2-3.5-1.8-5.1-.6-1.6-1.3-3.2-1.9-4.7s-1.3-3-2-4.4-1.4-2.8-2.2-4.1c-.4-.7-.8-1.4-1.2-2s-.8-1.3-1.3-1.9c-.5-.6-1-1.2-1.5-1.8-.5-.6-1-1.2-1.6-1.8-.3-.2-.6-.5-.9-.8-.3-.3-.6-.5-.9-.8-.3-.3-.6-.5-.9-.8s-.7-.6-1-.8-.7-.5-1-.7c-.3-.3-.6-.5-1-.7-.7-.4-1.4-.8-2.1-1.2s-1.4-.7-2.2-1-1.5-.6-2.3-.8-1.5-.4-2.3-.6c-.8-.2-1.5-.3-2.3-.4s-1.5-.2-2.3-.2h-2.3c-.3.1-.8.1-1.1.1s-.7.1-1.1.1-.7,0-1.1.1-.7.1-1.1.2c-.8.1-1.5.3-2.2.5-.7.1-1.4.4-2.1.6-.7.2-1.4.5-2.1.8-.7.3-1.4.7-2.1,1s-1.4.7-2,1.1c-.6.4-1.3.8-1.9,1.3s-1.2,1-1.8,1.5c-.5.5-1.1,1-1.7,1.6-.3.3-.5.6-.8.9s-.5.6-.8.9-.6.6-.8.9c-.2.2-.3.3-.4.5-.2.2-.3.3-.4.5-.2.3-.5.7-.7,1-.3.3-.5.7-.7,1-.4.7-.9,1.3-1.2,2.1s-.7,1.5-1,2.2-.6,1.4-.9,2.2-.5,1.5-.8,2.3-.5,1.5-.7,2.3c-.4,1.5-.7,3.1-1,4.7-.2,1.7-.4,3.3-.6,5s-.3,3.4-.4,5.2-.1,3.7-.1,5.6c0,2,0,3.9.1,6,0,1,0,2,.1,3.1s.1,2.2.2,3.3c.1,2.2.2,4.4.4,6.8.2,2.4.4,4.8.6,7.3s.4,5.1.7,7.7c.3,2.6.6,5.3.9,8,.6,5.5,1.3,11.2,2.1,17.1s1.6,11.9,2.5,18.1c.9,6.2,1.8,12.5,2.8,18.9.9,6.4,1.9,12.8,2.9,19.3s2,13,3,19.4c1,6.5,2,12.9,3,19.2.4,2.3,6.19,30.06,6.59,32.26l-6.89,2.3c-.6-1.7-9.8-27.96-10.4-29.66-2-6.1-4-12.1-5.9-18-1.9-5.9-3.7-11.7-5.6-17.3s-3.6-11-5.4-16.3c-1.7-5.3-3.4-10.3-5.1-15.2-1.6-4.8-3.2-9.5-4.8-13.9s-3.1-8.6-4.6-12.5c-.8-2-1.5-3.9-2.2-5.7-.7-1.8-1.4-3.6-2.1-5.3-.7-1.7-1.4-3.3-2.1-4.9s-1.3-3.1-2-4.5c-.3-.7-.7-1.4-1-2.1s-.7-1.4-1-2c-.6-1.3-1.3-2.5-2-3.7-.7-1.2-1.4-2.3-2.1-3.4s-1.4-2.1-2.2-3.1c-.4-.5-.8-1-1.2-1.5s-.8-1-1.2-1.4c-.4-.4-.8-.9-1.2-1.3-.4-.4-.9-.8-1.3-1.2-.4-.4-.9-.8-1.3-1.2-.3-.1-.4-.3-.7-.5s-.5-.3-.7-.5c-.3-.2-.5-.3-.7-.5-.3-.2-.5-.3-.7-.5-.1,0-.2-.1-.3-.2-.1,0-.2-.1-.3-.2-.2-.2-.5-.3-.7-.5s-.5-.3-.7-.5-.4-.3-.7-.5-.5-.3-.8-.5-.5-.3-.8-.5c-.5-.3-1.1-.6-1.7-.9s-1.2-.5-1.8-.8c-.6-.2-1.3-.5-2-.7-.7-.2-1.5-.5-2.2-.6s-1.5-.3-2.3-.4c-.4,0-.8-.1-1.2-.1s-.9-.1-1.3-.1h-1.3c-.4,0-.8.1-1.3.1-.2.1-.5.1-.7.1s-.5.1-.7.1-.5.1-.7.1c-.1.1-.2.1-.3.1s-.2.1-.3.1c-.2,0-.4,0-.7.1s-.5.1-.7.2c-.5.1-.9.3-1.3.4-.4.1-.8.2-1.2.4s-.8.3-1.2.5c-.8.3-1.5.7-2.2,1.1-.7.4-1.3.9-2,1.3s-1.3.9-1.9,1.4c-.6.5-1.1,1-1.7,1.5s-1.1,1-1.6,1.6-1,1.2-1.5,1.8c-.4.7-.9,1.3-1.3,1.9-.4.7-.8,1.3-1.2,2-.1.3-.3.6-.5,1-.2.4-.3.7-.5,1.1-.2.4-.4.7-.5,1.1-.1.4-.3.7-.4,1.1-.2.4-.3.7-.4,1.1-.1.4-.2.7-.3,1.1-.2.7-.3,1.5-.5,2.2s-.3,1.4-.4,2.2-.2,1.5-.2,2.2c-.1.7-.1,1.4-.1,2.1v2.1c.1,1.4.2,2.8.3,4.1s.3,2.7.5,4,.4,2.7.7,4.1c.1.7.3,1.3.4,2.1s.3,1.5.4,2.2c.1.4.1.7.2,1.1,0,.3.1.7.2,1.1,0,.3.1.7.2,1.1,0,.4.1.8.2,1.2.1.8.4,1.6.5,2.4s.3,1.6.5,2.5c.2.8.4,1.7.6,2.6s.4,1.8.6,2.7c.4,1.9.9,3.8,1.3,5.8.5,2,.9,4.1,1.4,6.2s1,4.2,1.5,6.5,1,4.5,1.6,6.9,1.2,4.8,1.8,7.2c1.2,4.9,2.5,10,3.9,15.3,1.3,5.2,2.8,10.7,4.4,16.3,1.6,5.7,3.2,11.4,5,17.3s3.6,11.9,5.6,18c2,6.2,4,12.4,6.2,18.7,2.1,5.9,4.2,11.9,6.4,17.9v-.1c1.2,6.6,2.3,13.2,3.4,19.8,2,11.6,3.9,23,5.9,34.3,2,11.3,4,22.4,6,33.1,1.1,5.4,2.1,10.7,3.1,15.9,1,5.2,2.1,10.3,3.1,15.3,1.1,5,2.1,9.9,3.2,14.6,1.1,4.8,2.2,9.4,3.3,13.9,1.1,4.5,2.2,8.9,3.4,13.1.6,2.1,1.2,4.2,1.8,6.2.6,2.1,1.2,4.1,1.8,6s1.2,3.8,1.8,5.7c.6,1.9,1.3,3.7,1.9,5.5.7,1.8,1.3,3.5,2,5.2.3.8.7,1.6,1,2.5s.7,1.7,1,2.5c.7,1.6,1.4,3.2,2.1,4.7s1.5,3,2.3,4.5l6.3,30,6.9,250.9-296.76,11.54,6.9-250.9,6.3-30c.8-1.5,1.6-3,2.3-4.5s1.4-3.1,2.1-4.7c.3-.8.7-1.6,1-2.5s.7-1.7,1-2.5c.7-1.7,1.3-3.4,2-5.2.6-1.8,1.3-3.6,1.9-5.5.6-1.9,1.2-3.8,1.8-5.7s1.2-3.9,1.8-6c.6-2,1.2-4.1,1.8-6.2,1.2-4.2,2.3-8.6,3.4-13.1,1.1-4.5,2.2-9.1,3.3-13.9,1.1-4.7,2.1-9.6,3.2-14.6,1-5,2.1-10.1,3.1-15.3,1-5.2,2-10.5,3.1-15.9,2-10.7,4-21.8,6-33.1,2-11.3,3.9-22.7,5.9-34.3,1.1-6.6,2.2-13.2,3.4-19.8v.1c2.2-6,4.3-12,6.4-17.9,2.2-6.3,4.2-12.5,6.2-18.7,2-6.1,3.8-12.1,5.6-18s3.4-11.6,5-17.3c1.6-5.6,3.1-11.1,4.4-16.3,1.4-5.3,2.7-10.4,3.9-15.3.6-2.4,1.2-4.8,1.8-7.2s1.1-4.6,1.6-6.9,1-4.4,1.5-6.5.9-4.2,1.4-6.2c.4-2,.9-3.9,1.3-5.8.2-.9.4-1.8.6-2.7s.4-1.8.6-2.6c.2-.9.4-1.7.5-2.5s.4-1.6.5-2.4c.1-.4.2-.8.2-1.2.1-.4.2-.8.2-1.1.1-.4.2-.8.2-1.1.1-.4.1-.7.2-1.1.1-.7.3-1.4.4-2.2s.3-1.4.4-2.1c.3-1.4.5-2.8.7-4.1s.4-2.7.5-4,.2-2.7.3-4.1v-2.1c0-.7,0-1.4-.1-2.1,0-.7-.1-1.4-.2-2.2s-.2-1.5-.4-2.2-.3-1.5-.5-2.2c-.1-.4-.2-.7-.3-1.1-.1-.4-.2-.7-.4-1.1-.1-.4-.3-.7-.4-1.1-.1-.4-.3-.7-.5-1.1-.2-.4-.3-.7-.5-1.1-.2-.4-.4-.7-.5-1-.4-.7-.8-1.3-1.2-2-.4-.6-.9-1.2-1.3-1.9-.5-.6-1-1.2-1.5-1.8s-1-1.1-1.6-1.6-1.1-1-1.7-1.5c-.6-.5-1.2-1-1.9-1.4s-1.3-.9-2-1.3c-.7-.4-1.4-.8-2.2-1.1-.4-.2-.8-.3-1.2-.5s-.8-.3-1.2-.4c-.4-.1-.8-.3-1.3-.4-.2-.1-.4-.1-.7-.2s-.5-.1-.7-.1c-.1,0-.2-.1-.3-.1s-.2,0-.3-.1c-.2,0-.5-.1-.7-.1s-.5-.1-.7-.1-.5,0-.7-.1c-.5,0-.9-.1-1.3-.1h-1.3c-.4,0-.9.1-1.3.1s-.8.1-1.2.1c-.8.1-1.6.3-2.3.4s-1.5.4-2.2.6c-.7.2-1.4.5-2,.7-.6.3-1.2.5-1.8.8s-1.2.6-1.7.9c-.3.2-.5.3-.8.5s-.5.3-.8.5-.5.3-.7.5-.5.3-.7.5-.5.3-.7.5c-.1.1-.2.2-.3.2-.1.1-.2.2-.3.2-.2.2-.4.3-.7.5-.2.2-.4.3-.7.5-.2.2-.4.3-.7.5s-.4.4-.7.5c-.4.4-.9.8-1.3,1.2-.4.4-.9.8-1.3,1.2-.4.4-.8.9-1.2,1.3-.4.4-.8.9-1.2,1.4s-.8,1-1.2,1.5c-.8,1-1.5,2-2.2,3.1s-1.4,2.2-2.1,3.4c-.7,1.2-1.4,2.4-2,3.7-.3.6-.7,1.3-1,2s-.7,1.4-1,2.1c-.7,1.4-1.3,2.9-2,4.5s-1.4,3.2-2.1,4.9c-.7,1.7-1.4,3.5-2.1,5.3-.7,1.8-1.4,3.7-2.2,5.7-1.5,3.9-3,8.1-4.6,12.5s-3.2,9.1-4.8,13.9c-1.7,4.9-3.4,9.9-5.1,15.2-1.8,5.3-3.5,10.7-5.4,16.3s-3.7,11.4-5.6,17.3c-1.9,5.9-3.9,11.9-5.9,18-.6,1.7-9.8,27.96-10.4,29.66l-6.89-2.3c.4-2.2,6.19-29.96,6.59-32.26,1-6.3,2-12.7,3-19.2,1-6.4,2-12.9,3-19.4s2-12.9,2.9-19.3c1-6.4,1.9-12.7,2.8-18.9.9-6.2,1.7-12.2,2.5-18.1s1.5-11.6,2.1-17.1c.3-2.7.6-5.4.9-8,.3-2.6.5-5.2.7-7.7s.4-4.9.6-7.3c.2-2.4.3-4.6.4-6.8.1-1.1.1-2.2.2-3.3s.1-2.1.1-3.1c.1-2.1.1-4,.1-6s0-3.8-.1-5.6-.2-3.5-.4-5.2-.4-3.3-.6-5c-.3-1.6-.6-3.2-1-4.7-.2-.8-.4-1.5-.7-2.3s-.5-1.5-.8-2.3-.6-1.5-.9-2.2-.7-1.4-1-2.2-.8-1.4-1.2-2.1c-.2-.3-.4-.7-.7-1-.2-.3-.5-.7-.7-1-.1-.2-.2-.3-.4-.5-.1-.2-.2-.3-.4-.5-.2-.3-.5-.6-.8-.9s-.5-.6-.8-.9-.5-.6-.8-.9c-.6-.6-1.2-1.1-1.7-1.6-.6-.5-1.2-1-1.8-1.5s-1.3-.9-1.9-1.3c-.6-.4-1.3-.8-2-1.1s-1.4-.7-2.1-1c-.7-.3-1.4-.6-2.1-.8-.7-.2-1.4-.5-2.1-.6-.7-.2-1.4-.4-2.2-.5-.4-.1-.7-.1-1.1-.2s-.7-.1-1.1-.1-.8-.1-1.1-.1-.8,0-1.1-.1h-2.3c-.8,0-1.5.1-2.3.2s-1.5.2-2.3.4c-.8.2-1.5.4-2.3.6s-1.5.5-2.3.8-1.5.6-2.2,1-1.4.8-2.1,1.2c-.4.2-.7.4-1,.7-.3.2-.7.5-1,.7s-.7.5-1,.8-.6.5-.9.8c-.3.3-.6.5-.9.8-.3.3-.6.6-.9.8-.6.6-1.1,1.2-1.6,1.8-.5.6-1,1.2-1.5,1.8-.5.6-.9,1.3-1.3,1.9s-.8,1.3-1.2,2c-.8,1.3-1.5,2.7-2.2,4.1s-1.4,2.9-2,4.4-1.3,3.1-1.9,4.7c-.6,1.6-1.2,3.3-1.8,5.1-.6,1.7-1.1,3.6-1.7,5.5-.3.9-.6,1.9-.9,2.9-.3,1-.6,2-.9,3-.3,1-.6,2.1-.9,3.1-.3,1-.6,2.1-.9,3.2-.6,2.2-1.2,4.4-1.7,6.8-.6,2.3-1.2,4.7-1.8,7.2s-1.2,5-1.8,7.6c-1.2,5.2-2.4,10.6-3.6,16.2s-2.4,11.4-3.7,17.4-2.4,12.1-3.7,18.4c-1.2,6.3-2.5,12.6-3.7,19.1s-2.4,13-3.6,19.6c-1.6,8.7-9.21,48.03-10.81,56.83l-8.68.26c-.1-2.3,1-37.08.9-39.38-.2-6.6-.3-13.3-.5-20.2-.2-6.8-.4-13.8-.6-20.7-.2-7-.5-14-.7-21s-.5-13.9-.7-20.8c-.2-6.8-.5-13.6-.7-20.2-.1-3.3-.2-6.6-.3-9.8-.1-3.2-.2-6.4-.3-9.5-.1-3.1-.2-6.2-.3-9.2,0-1.5-.1-3-.1-4.4s-.1-2.9-.1-4.3-.1-2.8-.1-4.2c0-.7,0-1.4-.1-2.1s0-1.4-.1-2.1c0-1.4-.1-2.7-.1-4s-.1-2.6-.1-3.9c-.1-2.6-.2-5.1-.3-7.6-.1-2.5-.2-4.9-.4-7.3-.1-2.4-.3-4.7-.5-6.9s-.4-4.5-.7-6.6c-.3-2.2-.6-4.3-1-6.3-.2-1-.4-2-.6-3.1s-.5-2-.7-3-.6-2-.9-3-.6-1.9-1-2.9-.7-1.9-1.2-2.9c-.4-.9-.9-1.9-1.3-2.8-.2-.5-.5-.9-.8-1.4s-.5-.9-.8-1.3c-.1-.2-.3-.4-.4-.7-.1-.2-.3-.4-.4-.7-.3-.4-.6-.9-.9-1.3s-.6-.8-1-1.2c-.3-.4-.7-.8-1-1.2-.7-.8-1.4-1.5-2.1-2.2s-1.5-1.4-2.3-2-1.6-1.2-2.4-1.8-1.7-1.1-2.6-1.6-1.8-.9-2.8-1.3c-1-.4-1.9-.8-2.9-1.1s-2-.6-3.1-.8-2.1-.3-3.3-.4h-3.4c-.3,0-.6,0-.9.1h-.4c-.1,0-.3,0-.4.1-.3,0-.6.1-.9.1s-.6.1-.9.2c-.6.1-1.1.3-1.7.4-.5.2-1.1.3-1.6.5s-1,.4-1.5.6c-.5.2-1,.5-1.5.7-1,.5-1.9,1-2.7,1.6-.9.6-1.7,1.2-2.4,1.8-.8.6-1.5,1.3-2.2,2s-1.3,1.4-1.9,2.1-1.2,1.5-1.7,2.2c-.5.8-1,1.5-1.5,2.3s-.9,1.6-1.4,2.4-.8,1.6-1.2,2.4-.8,1.6-1.1,2.5c-.7,1.7-1.3,3.4-1.9,5.1s-1.1,3.5-1.5,5.3-.9,3.7-1.2,5.6-.7,3.8-1,5.8-.5,4-.8,6.1-.5,4.2-.6,6.4c-.2,2.2-.4,4.5-.5,6.8-.2,2.3-.3,4.7-.4,7.2-.1,1.2-.1,2.5-.2,3.7s-.1,2.5-.2,3.8c-.1,1.3-.1,2.6-.2,3.9-.1,1.3-.1,2.7-.2,4.1-.1,1.4-.1,2.8-.2,4.2s-.1,2.8-.2,4.3c-.1,2.9-.2,5.8-.3,8.8s-.2,6.1-.3,9.2c-.1,3.1-.2,6.3-.3,9.5-.2,6.5-.3,13.1-.5,19.9-.2,6.8-.3,13.7-.4,20.7s-.2,14-.3,21.1c-.1,7.1-.1,14.2-.2,21.2-.1,9.8,1.62,52.32,1.62,61.72l-7.66,3.83c-.6-2.1-10.56-39.05-11.16-41.25-1.8-6.1-3.5-12.4-5.3-18.7-1.8-6.3-3.6-12.6-5.4-18.9-1.8-6.3-3.7-12.5-5.5-18.7s-3.6-12.3-5.5-18.3c-1.8-6-3.6-11.8-5.4-17.5-1.8-5.6-3.6-11.1-5.3-16.3-.9-2.6-1.7-5.2-2.6-7.7s-1.7-4.9-2.6-7.3c-.8-2.4-1.7-4.6-2.5-6.8s-1.7-4.3-2.5-6.4c-.4-1-.8-2-1.2-3-.4-1-.8-1.9-1.2-2.9-.8-1.9-1.6-3.7-2.4-5.4s-1.6-3.4-2.5-5c-.8-1.6-1.7-3.1-2.5-4.6-.9-1.5-1.8-2.9-2.7-4.2-.9-1.3-1.9-2.6-2.9-3.9-.5-.6-1-1.2-1.6-1.8-.5-.6-1.1-1.2-1.6-1.7-.6-.6-1.1-1.1-1.7-1.6s-1.2-1-1.9-1.5c-.6-.5-1.3-.9-2-1.4-.3-.2-.7-.4-1-.6-.4-.2-.7-.4-1.1-.6-.2-.1-.4-.2-.5-.3-.2-.1-.4-.2-.5-.3-.4-.2-.7-.4-1.1-.5-.4-.2-.7-.3-1.1-.5-.4-.1-.7-.3-1.1-.4-.8-.3-1.5-.5-2.3-.7s-1.5-.4-2.3-.5c-.8-.2-1.5-.3-2.3-.4s-1.5-.2-2.3-.2h-2.3c-.8,0-1.5.1-2.3.2s-1.5.2-2.2.3-1.5.3-2.2.5c-.4.1-.7.2-1.1.3-.4.1-.7.2-1.1.3s-.7.2-1.1.4c-.4.1-.7.3-1,.4-.7.3-1.4.6-2.1,1s-1.3.7-2,1.2c-.7.4-1.3.9-1.9,1.3-.6.5-1.2,1-1.8,1.5-.6.5-1.2,1.1-1.7,1.7s-1.1,1.2-1.6,1.8c-.5.6-1,1.3-1.4,2-.2.3-.4.7-.7,1s-.4.7-.6,1.1-.4.7-.6,1.1-.4.7-.5,1.1-.3.7-.5,1.1-.3.8-.4,1.1c-.3.8-.5,1.5-.7,2.3s-.4,1.5-.5,2.3-.3,1.5-.4,2.3c-.1.8-.2,1.5-.3,2.3-.2,1.5-.2,3.1-.3,4.7v4.9c0,1.7.2,3.3.3,5.1.2,1.7.3,3.5.6,5.3.2,1.8.5,3.7.7,5.7.1,1,.3,2,.4,3,.2,1,.3,2,.5,3.1.2,1,.3,2.1.5,3.2.2,1.1.4,2.2.6,3.3.4,2.2.8,4.5,1.3,6.9s.9,4.8,1.4,7.2c.5,2.5,1,5,1.6,7.6,1.1,5.2,2.3,10.6,3.5,16.2,1.3,5.6,2.6,11.4,4,17.3,1.4,5.9,2.9,12,4.4,18.2s3.1,12.5,4.8,18.8c1.6,6.4,3.3,12.8,5,19.3,3.4,12.9,6.9,26,10.5,38.9l4.4,19.4c.7,8.2,5.02,23.6,5.62,31.4s13.48,50,14.08,57.4c.3,3.7.5,7.4.8,11,.1,1.9.3,3.8.4,5.7l-92.4-89-5.6-2c-3.1-.4-6.1-.7-8.9-.9-2.9-.2-5.6-.4-8.3-.5s-5.2-.1-7.7-.1c-1.2,0-2.5.1-3.7.1s-2.4.1-3.6.2c-.6.1-1.2.1-1.7.2-.6.1-1.1.1-1.7.2-.6.1-1.1.2-1.7.2s-1.1.1-1.7.2c-.3,0-.6.1-.8.1-.3.1-.5.1-.8.1s-.5.1-.8.1-.5.1-.8.1c-.5.1-1.1.2-1.6.3-.5.1-1.1.2-1.7.4s-1.1.3-1.7.4-1.2.3-1.7.5-1.2.4-1.8.6-1.2.5-1.8.7-1.2.5-1.8.8-1.2.6-1.8.9-1.2.7-1.8,1.1-1.2.8-1.8,1.3-1.2.9-1.8,1.4-1.2,1.1-1.7,1.6-1.1,1.2-1.6,1.8c-.3.3-.5.6-.7,1-.2.3-.5.7-.7,1-.2.4-.5.7-.7,1.1-.1.2-.2.4-.3.5s-.2.4-.3.5c-.2.4-.4.7-.6,1.1s-.3.8-.5,1.1c-.2.4-.3.7-.5,1.1s-.3.7-.4,1.1c-.3.7-.5,1.5-.7,2.3s-.4,1.5-.5,2.3c-.1.7-.3,1.5-.4,2.3-.1.8-.2,1.5-.2,2.3-.1.7-.1,1.5-.1,2.3,0,1.5,0,3,.1,4.5s.3,3,.5,4.5.5,3,.9,4.5.8,3,1.3,4.5c.2.8.5,1.5.8,2.2s.6,1.5.9,2.2c.3.7.6,1.5,1,2.2.3.7.7,1.5,1.1,2.2.1.2.2.4.3.5.1.2.2.4.3.5.2.4.4.7.6,1.1.4.7.8,1.4,1.2,2.1s.9,1.4,1.3,2c.4.7.9,1.3,1.4,2,.5.6.9,1.3,1.4,1.9s1,1.2,1.5,1.9c1,1.2,2,2.4,3.1,3.6,1,1.2,2.1,2.3,3.2,3.4,1.1,1.1,2.2,2.2,3.3,3.3,1.1,1.1,2.3,2.2,3.4,3.3,1.2,1.1,2.3,2.2,3.5,3.2,2.4,2.1,4.8,4.3,7.2,6.5,1.2,1.1,2.4,2.2,3.7,3.3,1.2,1.1,2.5,2.3,3.7,3.4.6.6,1.2,1.2,1.9,1.7.6.6,1.2,1.2,1.9,1.8.6.6,1.2,1.2,1.9,1.8.6.6,1.2,1.2,1.9,1.9.6.6,1.2,1.3,1.9,1.9.3.3.6.6.9,1,.3.3.6.7.9,1,.6.7,1.2,1.3,1.9,2,.6.7,1.3,1.4,1.9,2.1,1.3,1.4,2.6,2.9,3.9,4.3,1.3,1.5,2.6,3,4,4.6,1.3,1.5,2.7,3.1,4.1,4.8,1.4,1.6,2.7,3.2,4.2,4.9s2.8,3.3,4.3,5.1c1.4,1.7,2.9,3.4,4.4,5.2,3,3.5,6,7,9.2,10.5s6.4,7.1,9.8,10.6,6.9,7,10.6,10.4,7.4,6.8,11.4,10c3.9,3.2,8.1,6.4,12.4,9.4s8.8,5.8,13.4,8.5c3.1,1.7,6.2,3.4,9.5,5l15.8,39.3,3.1,233.3L4.01,504.78.56.56"/></svg>