<?xml version="1.0" encoding="UTF-8"?><svg id="a" xmlns="http://www.w3.org/2000/svg" width="107.41mm" height="62.81mm" viewBox="0 0 304.47 178.04"><defs><style>.cls-1{fill:none;stroke:#000;stroke-linecap:round;stroke-linejoin:round;stroke-width:.71px;}</style></defs><polyline class="cls-1" points="304.12 171.59 303.52 168.89 268.02 177.69 267.92 177.59 267.22 174.89 302.72 166.09 302.82 166.09 302.12 163.39 266.62 172.09 266.52 171.99 265.92 169.29 301.42 160.59 301.42 160.49 300.72 157.79 265.22 166.59 265.22 166.49 264.52 163.79 300.02 154.99 300.02 154.89 299.32 152.19 263.82 160.89 263.82 160.79 263.12 158.09 298.62 149.39 298.62 149.29 298.02 146.59 262.52 155.39 262.42 155.29 261.72 152.59 297.22 143.79 297.32 143.79 296.62 141.09 261.12 149.89 261.02 149.69 260.42 146.99 295.82 138.29 295.92 138.19 295.22 135.49 259.72 144.29 259.72 144.19 259.02 141.49 294.52 132.69 294.52 132.69 293.82 129.99 258.42 138.69 258.32 138.59 257.62 135.89 293.12 127.19 293.12 127.09 292.52 124.39 257.02 133.19 256.92 133.09 256.22 130.39 291.72 121.59 .35 .35"/></svg>