<?xml version="1.0" encoding="UTF-8"?><svg id="a" xmlns="http://www.w3.org/2000/svg" width="409.12mm" height="208.07mm" viewBox="0 0 1159.71 589.82"><defs><style>.cls-1{fill:none;stroke:#000;stroke-linecap:round;stroke-linejoin:round;stroke-width:.71px;}</style></defs><polyline class="cls-1" points="966.23 589.46 940.86 567.69 970.01 581.9 944.64 560.13 973.89 574.36 948.53 552.48 977.68 566.7 952.32 544.82 981.45 559.14 956.1 537.26 985.25 551.38 959.98 529.62 988.93 543.81 963.65 522.15 992.72 536.15 967.54 514.5 996.6 528.6 971.32 506.94 1000.38 521.05 975.12 499.18 1004.16 513.39 978.9 491.62 1007.95 505.73 982.67 484.07 1011.64 498.06 986.36 476.4 1015.41 490.6 990.24 468.85 1019.3 482.95 994.03 461.19 1023.08 475.4 997.82 453.53 1026.85 467.84 1001.61 445.87 1030.65 460.08 1005.28 438.3 1034.33 452.51 1009.06 430.75 1038.12 444.85 1012.95 423.1 1042 437.3 1016.73 415.54 1045.89 429.66 1020.53 407.78 1049.66 422.1 1024.3 400.32 1053.45 414.44 1027.98 392.65 1057.14 406.77 1031.76 385.1 1061.02 399.22 1035.64 377.55 1064.81 391.56 1039.53 369.9 1068.59 384 1043.32 362.24 1072.36 376.45 1047.11 354.58 1076.15 368.79 1050.78 347.01 1079.83 361.22 1080.07 360.84 1054.8 339.08 1083.85 353.28 1058.58 331.52 1087.63 345.72 1062.37 323.86 1062.81 323.28 1093.87 332.28 1065.23 315.19 1096.29 324.18 1067.64 306.99 1098.79 315.88 1070.06 298.79 1101.22 307.78 1072.48 290.7 1103.63 299.59 1074.9 282.6 1106.05 291.49 1077.32 274.51 1108.47 283.4 1079.84 266.3 1110.89 275.2 1082.25 258.11 1113.3 267 1084.67 250.01 1115.62 258.82 1087.09 241.82 1118.15 250.81 1089.51 233.72 1120.57 242.72 1091.93 225.52 1122.98 234.52 1094.35 217.43 1125.4 226.42 1096.75 209.13 1127.81 218.13 1099.18 201.04 1130.23 210.03 1101.6 192.94 1132.65 201.84 1104.01 184.74 1135.07 193.74 1106.43 176.65 1137.48 185.55 1108.85 168.45 1139.91 177.45 1111.27 160.36 1142.32 169.25 1113.68 152.16 1144.74 161.06 1116.11 144.06 1147.16 152.96 1118.53 135.97 1149.67 144.76 1120.94 127.77 1152.09 136.66 1123.36 119.68 1154.51 128.47 1125.77 111.38 1156.93 120.37 1128.19 103.29 1159.35 112.28 1107.74 12.85 .35 .35"/></svg>